<svg xmlns="http://www.w3.org/2000/svg"  viewBox="0 0 48 48" width="240px" height="240px"><path fill="#513620" d="M5.083,26.826l4.704-7.454L5.083,14.46c0,0,13.456-0.216,17.75,0.119 c4.294,0.335,8.516,0.463,11.719,0s7.197-1.536,8.239-0.391c-3.51,4.363-4.661,5.292-4.661,5.292l4.661,7.802 C42.792,27.282,11.583,25.651,5.083,26.826z"/><path fill="#c56528" d="M4.569,14.188c0,0,9.893-0.186,19.147,0.5c9.253,0.686,16.706-0.926,16.706-0.926l2.875,0.16 c0,0-0.955-6.855-6.855-7.284c-5.9-0.429-14.878,0.236-14.878,0.236l-9.145,0.272C12.419,7.145,6.625,7.292,4.569,14.188z"/><path fill="#febf10" d="M23.906,11.621c-2.067-0.093-4.158,1.016-5.528,2.567L29.2,14.896 C27.975,13.228,25.973,11.714,23.906,11.621z"/><path fill="#c56528" d="M13.451,41.875c0,0,8.733,1.583,11.84,1.379s10.257-0.994,10.959-1.033 c0.702-0.039,1.15-2.606,1.15-2.606l3.247-0.098l0.894-3.941l1.888-0.419l-0.597-7.532c0,0-24.583-2.498-37.99-0.342 c0.641,2.202,1.209,6.299,0.943,7.874c0.963,0.009,2.776-0.299,2.589,3.21C8.719,38.938,14.111,38.167,13.451,41.875z"/><path fill="#febf10" d="M28.769,26.656l-10.546,0.133c0.016,0.02,0.017,0.047,0.018,0.072 c0.038,1.265,0.022,2.531-0.045,3.795c1.542-0.166,3.113,1,3.399,2.525c0.072,0.38,0.067,0.792-0.12,1.131 c-0.11,0.199-0.277,0.364-0.376,0.569c-0.176,0.365-0.11,0.804,0.042,1.18c0.389,0.959,1.344,1.663,2.375,1.752 s2.092-0.443,2.638-1.322c0.161-0.258,0.281-0.554,0.27-0.858c-0.023-0.594-0.521-1.046-0.774-1.584 c-0.463-0.983,0.052-2.305,1.058-2.716c0.333-0.136,0.699-0.182,1.022-0.341c0.624-0.309,0.979-1.004,1.079-1.693 C28.908,28.61,28.852,27.347,28.769,26.656z"/><path fill="#010101" d="M43.637,13.907c-0.048-0.162-0.175-0.29-0.338-0.338c-2.158-0.638-4.379-0.196-6.53,0.229 c-0.523,0.104-1.044,0.207-1.563,0.294c-1.873,0.315-3.783,0.407-5.697,0.39c-1.197-1.578-3.259-3.256-5.581-3.36 c-2.073-0.098-4.325,0.944-5.896,2.705c-4.418-0.188-8.877-0.112-13.206-0.022c-0.276,0.006-0.496,0.234-0.49,0.511 c0.006,0.276,0.232,0.467,0.51,0.489c4.836-0.101,9.834-0.204,14.73,0.085c1.115,0.066,2.231,0.152,3.349,0.239 c4.091,0.315,8.321,0.643,12.447-0.051c0.528-0.089,1.059-0.194,1.591-0.3c1.76-0.349,3.573-0.71,5.273-0.428l-3.704,4.303 c-0.098,0.113-0.199,0.23-0.291,0.278c-0.117,0.063-0.311,0.067-0.497,0.071c-2.996,0.068-6.094,0.137-9.154,0.008 c-0.991-0.041-1.982-0.103-2.972-0.165c-0.605-0.038-1.211-0.076-1.817-0.109c-3.761-0.207-8.341-0.162-13.612,0.136 C9.915,18.889,9.704,19.124,9.72,19.4c0.015,0.275,0.252,0.492,0.527,0.471c5.233-0.294,9.776-0.34,13.5-0.136 c0.603,0.033,1.206,0.071,1.809,0.109c0.998,0.063,1.996,0.125,2.994,0.167c1.269,0.053,2.541,0.072,3.808,0.072 c1.822,0,3.634-0.041,5.411-0.08c0.275-0.007,0.617-0.015,0.941-0.187c0.258-0.137,0.437-0.344,0.581-0.511l4.246-4.932 C43.647,14.246,43.685,14.07,43.637,13.907z M19.636,13.893c-0.081-0.005-0.162-0.005-0.242-0.01 c1.307-1.164,2.953-1.825,4.489-1.763c1.669,0.076,3.232,1.185,4.293,2.333c-1.734-0.059-3.466-0.188-5.174-0.32 C21.879,14.046,20.756,13.959,19.636,13.893z"/><path fill="#febf10" d="M36.608,42.083c0.114-0.618,0.229-1.236,0.343-1.854c0.03-0.16,0.063-0.329,0.17-0.452 c0.173-0.2,0.473-0.214,0.737-0.212c0.817,0.004,1.634,0.008,2.451,0.013c0.116,0.001,0.239-0.001,0.339-0.061 c0.14-0.085,0.192-0.26,0.229-0.42c0.21-0.897,0.333-1.815,0.368-2.736c0.011-0.293,0.043-0.639,0.297-0.785 c0.138-0.08,0.308-0.075,0.467-0.069c0.524,0.022,0.796-0.113,1.32-0.091l-0.129,6.564L36.608,42.083z"/><path fill="#f3ad20" d="M14.129,22.047c-0.654-0.632-0.345-2.141,0.362-2.713c0.707-0.572,1.899-0.372,2.381,0.399 c-0.526-1.092,0.44-2.467,1.632-2.687c1.192-0.22,2.394,0.426,3.245,1.289c0.896-0.88,2.051-1.638,3.304-1.565 c1.254,0.073,2.458,1.323,2.078,2.519c0.787-0.348,1.68-0.596,2.503-0.342c0.822,0.254,1.705,2.163,1.397,2.967 c0.625-0.603,1.996-1.078,3.156-0.853c0.919,0.178,1.631,1.474,1.469,2.396c0.795,0.299,1.845-0.196,2.375,1.124 c0.406,1.011-0.529,1.609-1.094,2.243L14.129,22.047z"/><path fill="#febf10" d="M9.723,26.195c-0.691-0.696-0.257-2.027,0.643-2.417c0.901-0.389,1.985-0.012,2.701,0.659 c-0.475-1.077,0.555-2.367,1.725-2.493s2.282,0.593,3.052,1.482c-0.093-1.435,0.98-2.924,2.41-3.071s2.85,1.332,2.456,2.715 c0.293-0.845,1.101-1.544,1.996-1.519s1.715,0.935,1.488,1.8c0.557-0.547,1.392-0.794,2.157-0.641s1.439,0.705,1.741,1.425 c0.659-0.227,1.335-0.457,2.031-0.439c1.49,0.038,2.825,1.385,2.85,2.875L9.723,26.195z"/><path fill="#febf10" d="M13.451,41.576c0.41,0.137-0.083-0.862-0.125-1.292c-0.014-0.146-0.029-0.295-0.088-0.429 c-0.073-0.167-0.21-0.299-0.36-0.403c-0.679-0.469-1.575-0.395-2.4-0.413c-0.825-0.018-1.781-0.244-2.119-0.996 c-0.314-0.696,0.043-1.571-0.316-2.245c-0.357-0.671-1.906-0.886-2.395-0.303c0,0-0.492,5.225-0.18,6.537 C7.112,41.875,12.517,41.263,13.451,41.576z"/><path fill="#010101" d="M43.7,27.399c0-0.004-0.003-0.007-0.003-0.011c-0.002-0.03-0.015-0.059-0.023-0.09 c-0.01-0.037-0.016-0.074-0.033-0.108c-0.001-0.001,0-0.002-0.001-0.004c-0.548-1.012-1.371-2.475-2.176-3.697 c-0.746-1.131-1.39-2.471-2.013-3.766l-0.335-0.694c-0.12-0.247-0.419-0.351-0.668-0.23c-0.248,0.12-0.352,0.42-0.231,0.668 l0.333,0.69c0.637,1.325,1.296,2.695,2.079,3.883c0.631,0.958,1.27,2.064,1.779,2.982c-1.508-0.197-3.016-0.352-4.505-0.471 c0.493-0.52,0.975-1.202,0.592-2.156c-0.486-1.209-1.378-1.268-2.03-1.31c-0.1-0.007-0.197-0.013-0.29-0.023 c-0.057-1.062-0.817-2.283-1.893-2.491c-0.936-0.179-1.966,0.033-2.747,0.412c-0.094-0.46-0.276-0.867-0.359-1.039 c-0.18-0.369-0.676-1.252-1.395-1.474c-0.616-0.19-1.308-0.166-2.098,0.077c-0.048-0.348-0.185-0.692-0.406-1.016 c-0.5-0.728-1.342-1.211-2.195-1.261c-1.097-0.063-2.222,0.4-3.333,1.381c-1.034-0.89-2.254-1.294-3.336-1.098 c-0.801,0.148-1.539,0.712-1.925,1.473c-0.104,0.205-0.177,0.413-0.22,0.621c-0.134-0.05-0.274-0.087-0.419-0.111 c-0.615-0.104-1.224,0.045-1.672,0.408c-0.515,0.417-0.87,1.191-0.904,1.974c-0.017,0.4,0.061,0.756,0.209,1.055 c-0.286,0.217-0.54,0.481-0.723,0.798c-0.126,0.219-0.214,0.448-0.263,0.679c-0.708-0.343-1.552-0.467-2.328-0.131 c-0.631,0.272-1.109,0.89-1.247,1.608c-0.094,0.488-0.008,0.954,0.226,1.33c-1.218,0.068-2.438,0.15-3.661,0.249 c1.223-2.188,2.639-4.25,4.608-6.712c0.083,0.052,0.175,0.078,0.266,0.078c0.166,0,0.327-0.082,0.422-0.231 c0.148-0.233,0.08-0.542-0.154-0.69c-1.677-1.065-3.206-2.353-4.545-3.825l-0.119-0.131c-0.274-0.303-0.571-0.601-0.905-0.868 c0.43-1.011,0.936-2.001,1.509-2.941c0.005-0.008,0.012-0.018,0.017-0.026c0.058,0.024,0.12,0.038,0.186,0.038 c0.023,0,0.046-0.002,0.07-0.005c5.935-0.837,12.055-0.854,17.974-0.871c2.394-0.007,4.868-0.015,7.301-0.075 c2.962-0.074,5.969-0.233,8.943-0.47c1.02,1.239,1.621,2.785,1.597,4.406c-0.004,0.276,0.216,0.504,0.492,0.508 c0.003,0,0.005,0,0.008,0c0.272,0,0.496-0.219,0.5-0.492c0.056-3.615-2.564-6.925-6.23-7.869c-1.039-0.267-2.113-0.325-3.039-0.359 c-3.51-0.125-7.063,0.077-10.499,0.275c-2.61,0.149-5.308,0.305-7.958,0.313H15.34c-1.257-0.003-2.565-0.003-3.849,0.202 c-1.749,0.28-3.162,0.909-4.2,1.869c-0.678,0.627-1.178,1.382-1.578,2.037c-0.611,1.001-1.15,2.056-1.605,3.133 c-0.037,0.088-0.038,0.178-0.025,0.265c-0.14,0.23-0.074,0.53,0.153,0.678c0.361,0.233,0.665,0.569,0.986,0.925l0.121,0.134 c1.174,1.29,2.495,2.435,3.922,3.43c-2.149,2.692-3.654,4.92-4.969,7.36c-0.009,0.016-0.009,0.034-0.015,0.05 c-0.176,0.09-0.289,0.279-0.271,0.488c0.014,0.159,0.108,0.286,0.232,0.367c0.003,0.006,0.002,0.013,0.005,0.019 c0.869,1.671,1.193,3.742,1.021,6.519c-0.055,0.881-0.149,1.76-0.244,2.638c-0.152,1.411-0.309,2.87-0.296,4.327 c0.002,0.249,0.147,0.957,0.491,1.229c0.081,0.063,0.181,0.102,0.284,0.106c1.567,0.083,3.003,0.052,4.392,0.023 c1.963-0.043,3.819-0.081,5.72,0.215c0.704,0.109,1.407,0.229,2.111,0.347c2.438,0.413,4.954,0.839,7.481,0.838 c0.131,0,0.262-0.001,0.393-0.003c1.612-0.028,3.224-0.24,4.783-0.444c0.443-0.059,0.886-0.116,1.329-0.171 c3.328-0.407,6.72-0.535,11.003-0.413l0.111,0.007c0.151,0.011,0.347,0.023,0.525,0.007c0.25-0.023,0.444-0.229,0.453-0.479 C43.996,37.202,43.961,32.342,43.7,27.399z M11.649,7.746c1.204-0.194,2.46-0.192,3.69-0.19h0.593 c2.677-0.008,5.389-0.164,8.012-0.314c3.414-0.195,6.946-0.401,10.405-0.273c0.873,0.031,1.884,0.086,2.826,0.328 c1.115,0.287,2.108,0.834,2.943,1.54c-2.676,0.199-5.37,0.343-8.029,0.409c-2.421,0.061-4.891,0.068-7.279,0.075 c-5.756,0.016-11.701,0.04-17.516,0.807C7.5,9.86,7.717,9.595,7.969,9.361C8.86,8.538,10.099,7.994,11.649,7.746z M36.743,39.45 c-0.008,0.009-0.009,0.02-0.016,0.029l-5.239,0.507c-1.081,0.104-2.198,0.211-3.292,0.233c-1.435,0.027-2.879-0.082-4.278-0.189 l-10.544-0.804c-0.067-0.064-0.128-0.129-0.211-0.186c-0.708-0.489-1.564-0.493-2.319-0.497l-0.354-0.004 c-0.413-0.009-1.402-0.097-1.675-0.702c-0.106-0.236-0.102-0.55-0.098-0.881c0.003-0.24,0.002-0.498-0.036-0.758 c3.99-0.165,7.903-0.228,11.922-0.188c0.024,0.08,0.042,0.159,0.075,0.24c0.458,1.129,1.582,1.957,2.795,2.061 c0.088,0.008,0.177,0.012,0.266,0.012c1.127,0,2.244-0.607,2.841-1.567c0.176-0.284,0.262-0.562,0.303-0.835 c4.587,0.028,9.228,0.274,13.822,0.742c0.004,0.004,0.01,0.006,0.013,0.01c-0.049,0.779-0.151,1.555-0.327,2.314 c-0.011,0.045-0.02,0.076-0.02,0.094c-0.021,0-0.047,0-0.064,0l-2.446-0.013C37.613,39.069,37.079,39.062,36.743,39.45z M17.743,26.984c0.022,0.798,0.015,1.604-0.007,2.411c-2.825,0.279-5.71,0.362-8.511,0.435l-3.145,0.083 c-0.158-0.871-0.4-1.663-0.728-2.392C9.558,27.173,13.768,27.021,17.743,26.984z M24.245,27.01 c0.033,0.531,0.035,0.932-0.096,1.482c-0.053,0.225-0.08,0.438-0.105,0.644c-0.058,0.472-0.094,0.688-0.343,0.876 c-0.088,0.065-0.443,0.076-0.59-0.007c-0.042-0.041-0.116-0.178-0.126-0.199l0.106-2.813C23.483,26.998,23.861,27.004,24.245,27.01 z M22.569,30.843c0.232,0.137,0.554,0.218,0.876,0.218c0.311,0,0.623-0.075,0.854-0.248c0.602-0.451,0.673-1.038,0.737-1.556 c0.021-0.17,0.042-0.349,0.085-0.534c0.155-0.651,0.158-1.137,0.125-1.695c1.057,0.02,2.081,0.043,3.059,0.07 c0.056,0.67,0.084,1.595,0.007,2.13c-0.069,0.478-0.317,1.074-0.807,1.316c-0.151,0.074-0.314,0.116-0.477,0.162 c-0.173,0.048-0.346,0.097-0.511,0.164c-0.606,0.248-1.101,0.767-1.357,1.425c-0.256,0.657-0.243,1.375,0.036,1.967 c0.098,0.208,0.227,0.405,0.357,0.601c0.193,0.29,0.36,0.541,0.37,0.788c0.006,0.164-0.06,0.358-0.194,0.576 c-0.45,0.723-1.317,1.16-2.172,1.087c-0.848-0.072-1.633-0.651-1.954-1.44c-0.125-0.308-0.145-0.59-0.056-0.774 c0.04-0.083,0.097-0.155,0.152-0.229c0.076-0.104,0.151-0.207,0.212-0.317c0.222-0.403,0.28-0.896,0.173-1.466 c-0.299-1.591-1.771-2.83-3.365-2.939c0.002-0.045,0.001-0.091,0.003-0.137c0.023-0.067,0.035-0.138,0.027-0.213 c-0.002-0.023-0.015-0.042-0.02-0.064c0.03-0.919,0.036-1.841,0.012-2.754c1.141-0.006,2.257-0.004,3.348,0.006l-0.105,2.783 C21.972,30.129,22.262,30.66,22.569,30.843z M42.727,28.072c0.037,0.744,0.067,1.488,0.094,2.23l-13.572-0.716 c0.016-0.073,0.043-0.14,0.054-0.215c0.087-0.602,0.065-1.535,0.012-2.245C33.412,27.243,38.091,27.439,42.727,28.072z M6.224,30.909l3.032-0.079c2.771-0.073,5.63-0.156,8.447-0.428c-0.004,0.076-0.003,0.152-0.008,0.228 c-0.008,0.146,0.049,0.288,0.156,0.39c0.106,0.101,0.247,0.148,0.397,0.134c1.276-0.145,2.615,0.852,2.854,2.12 c0.043,0.23,0.067,0.556-0.067,0.799c-0.039,0.071-0.089,0.137-0.139,0.203c-0.092,0.124-0.182,0.25-0.249,0.389 c-0.053,0.109-0.091,0.225-0.117,0.346c-4.153-0.04-8.194,0.024-12.328,0.201c-0.358-0.327-0.879-0.494-1.318-0.54 c-0.238-0.026-0.459-0.01-0.669,0.024c0.016-0.2,0.036-0.401,0.049-0.601C6.338,32.924,6.323,31.872,6.224,30.909z M41.292,35.143 c-0.228,0.132-0.35,0.328-0.426,0.529c-0.001,0-0.002-0.001-0.003-0.001c-4.678-0.478-9.427-0.731-14.118-0.755 c-0.102-0.221-0.234-0.422-0.358-0.609c-0.103-0.154-0.208-0.308-0.285-0.472c-0.163-0.346-0.166-0.774-0.009-1.178 c0.157-0.404,0.45-0.718,0.804-0.862c0.129-0.054,0.264-0.089,0.398-0.126c0.225-0.063,0.448-0.128,0.655-0.23 c0.373-0.185,0.685-0.491,0.922-0.873l13.984,0.738c0.035,1.207,0.056,2.415,0.063,3.625c-0.116,0.01-0.222,0.022-0.32,0.036 c-0.171,0.025-0.341,0.057-0.568,0.041C41.844,34.999,41.56,34.986,41.292,35.143z M14.271,20.963 c0.021-0.485,0.246-1.007,0.534-1.24c0.225-0.183,0.544-0.254,0.878-0.2c0.332,0.056,0.611,0.229,0.764,0.476 c0.141,0.225,0.433,0.304,0.666,0.173c0.232-0.128,0.325-0.415,0.209-0.654c-0.198-0.412-0.049-0.826,0.058-1.036 c0.244-0.481,0.721-0.851,1.214-0.941c0.883-0.169,1.929,0.267,2.798,1.147c0.193,0.196,0.509,0.198,0.707,0.006 c0.698-0.687,1.757-1.505,2.924-1.423c0.543,0.032,1.104,0.357,1.429,0.83c0.136,0.197,0.342,0.595,0.201,1.039 c-0.06,0.188-0.004,0.393,0.143,0.523c0.147,0.132,0.356,0.165,0.536,0.085c0.884-0.39,1.59-0.493,2.153-0.321 c0.19,0.059,0.523,0.406,0.791,0.956c0.293,0.602,0.367,1.147,0.287,1.354c-0.083,0.219-0.004,0.467,0.191,0.596 c0.196,0.13,0.454,0.104,0.623-0.057c0.52-0.501,1.736-0.91,2.714-0.722c0.603,0.116,1.194,1.119,1.071,1.818 c-0.042,0.237,0.092,0.471,0.317,0.555c0.312,0.117,0.635,0.139,0.919,0.157c0.591,0.038,0.916,0.06,1.167,0.685 c0.187,0.465-0.05,0.767-0.635,1.345c-0.116,0.115-0.228,0.229-0.332,0.343c-0.385-0.026-0.769-0.053-1.15-0.075 c-0.131-1.673-1.628-3.141-3.315-3.184c-0.641-0.033-1.243,0.146-1.801,0.329c-0.42-0.663-1.11-1.148-1.886-1.305 c-0.615-0.125-1.26-0.034-1.824,0.231c-0.066-0.186-0.163-0.366-0.289-0.534c-0.394-0.525-0.998-0.85-1.616-0.866 c-0.579,0.014-1.163,0.216-1.629,0.611c-0.108-0.264-0.263-0.518-0.461-0.754c-0.621-0.739-1.555-1.145-2.427-1.051 c-1.286,0.132-2.387,1.201-2.744,2.503c-0.854-0.685-1.81-1.013-2.721-0.914c-0.118,0.013-0.232,0.053-0.348,0.083 C14.313,21.383,14.261,21.199,14.271,20.963z M10.078,25.843c-0.23-0.231-0.208-0.554-0.175-0.726 c0.074-0.388,0.341-0.741,0.662-0.88c0.738-0.316,1.617,0.055,2.161,0.565c0.173,0.163,0.437,0.181,0.631,0.044 c0.194-0.138,0.264-0.393,0.168-0.609c-0.172-0.392-0.011-0.773,0.1-0.966c0.257-0.445,0.748-0.778,1.221-0.83 c1.226-0.126,2.241,0.874,2.62,1.313c0.14,0.163,0.369,0.217,0.567,0.136c0.199-0.082,0.323-0.28,0.31-0.495 c-0.078-1.216,0.857-2.428,1.963-2.542c0.544-0.058,1.149,0.211,1.559,0.699c0.36,0.43,0.494,0.934,0.366,1.383 c-0.074,0.261,0.073,0.532,0.331,0.613c0.259,0.08,0.534-0.058,0.623-0.313c0.239-0.691,0.894-1.188,1.509-1.184 c0.311,0.008,0.634,0.188,0.843,0.466c0.1,0.133,0.254,0.401,0.174,0.707c-0.057,0.218,0.038,0.446,0.232,0.56 c0.194,0.11,0.44,0.082,0.601-0.075c0.437-0.429,1.106-0.629,1.708-0.508c0.601,0.121,1.142,0.563,1.379,1.128 c0.103,0.243,0.376,0.365,0.624,0.279c0.611-0.21,1.254-0.448,1.856-0.412c1.13,0.029,2.171,1.013,2.331,2.128 c-1.961-0.103-3.859-0.166-5.636-0.215c-5.254-0.146-11.801-0.242-18.583,0.09C10.223,26.071,10.175,25.942,10.078,25.843z M9.873,41.355c-1.293,0.026-2.628,0.054-4.059-0.009c-0.045-0.123-0.085-0.287-0.087-0.36c-0.013-1.398,0.141-2.828,0.29-4.211 c0.037-0.342,0.072-0.685,0.107-1.027c0.133-0.07,0.365-0.114,0.657-0.083c0.43,0.045,0.744,0.223,0.82,0.366 c0.125,0.235,0.12,0.563,0.116,0.911c-0.006,0.406-0.012,0.867,0.185,1.305c0.362,0.804,1.272,1.263,2.565,1.292l0.37,0.004 c0.67,0.003,1.303,0.007,1.755,0.318c0.122,0.085,0.169,0.152,0.188,0.195c0.027,0.061,0.038,0.17,0.048,0.275l0.098,1.009 C11.92,41.314,10.912,41.333,9.873,41.355z M31.59,42.145c-0.446,0.055-0.892,0.112-1.338,0.171 c-1.532,0.201-3.115,0.409-4.67,0.437c-2.574,0.039-5.171-0.395-7.689-0.82c-0.708-0.12-1.417-0.24-2.125-0.35 c-0.618-0.096-1.226-0.151-1.832-0.19l-0.109-1.128l10.014,0.764c1.264,0.097,2.566,0.196,3.88,0.196 c0.165,0,0.33-0.002,0.495-0.005c1.131-0.023,2.268-0.133,3.4-0.241l4.773-0.461l-0.231,1.247 C34.578,41.839,33.076,41.963,31.59,42.145z M42.822,41.729l-0.079-0.005c-2.022-0.057-3.844-0.057-5.561-0.001l0.26-1.404 c0.002-0.01,0.006-0.029,0.009-0.044c0.045-0.052,0.081-0.112,0.102-0.179c0.05-0.004,0.135-0.009,0.301-0.031l2.45,0.013 c0.142,0.001,0.378,0.004,0.603-0.133c0.332-0.201,0.416-0.562,0.456-0.734c0.216-0.926,0.345-1.878,0.381-2.83 c0.011-0.278,0.042-0.359,0.041-0.368c0.034-0.014,0.148-0.009,0.203-0.005c0.308,0.009,0.543-0.021,0.751-0.051 c0.057-0.008,0.118-0.016,0.177-0.023C42.916,37.848,42.891,39.773,42.822,41.729z"/></svg>