<svg xmlns="http://www.w3.org/2000/svg" id="canvas" viewBox="775.962 424.811 1974.125 928.723"><path d="M 1062.00,598.59 C 1059.58 600.41, 1061.05 603.55, 1059.52 610.29 C 1057.99 617.03, 1057.54 620.95, 1054.34 632.29 C 1051.15 643.64, 1048.98 651.39, 1043.55 667.02 C 1038.11 682.64, 1034.55 691.88, 1027.18 710.42 C 1019.80 728.95, 1015.10 739.63, 1006.67 759.68 C 998.23 779.73, 993.09 790.83, 984.99 810.67 C 976.88 830.50, 972.48 840.91, 966.15 858.87 C 959.81 876.83, 956.73 885.70, 953.32 900.47 C 949.91 915.24, 948.47 921.89, 949.11 932.70 C 949.74 943.51, 951.09 948.18, 956.51 954.51 C 961.94 960.85, 966.39 962.68, 976.23 964.37 C 986.06 966.06, 992.31 965.23, 1005.68 962.96 C 1019.06 960.70, 1026.97 958.22, 1043.11 953.05 C 1059.24 947.87, 1068.59 944.05, 1086.36 937.08 C 1104.12 930.12, 1114.15 925.72, 1131.94 918.23 C 1149.72 910.73, 1158.99 906.65, 1175.30 899.62 C 1191.61 892.59, 1199.57 889.09, 1213.49 883.06 C 1227.40 877.03, 1233.69 874.32, 1244.89 869.49 C 1256.08 864.66, 1260.81 862.69, 1269.46 858.92 C 1278.10 855.15, 1281.56 853.73, 1288.13 850.63 C 1294.71 847.53, 1297.17 846.37, 1302.33 843.44 C 1307.48 840.51, 1309.65 839.25, 1313.88 835.99 C 1318.12 832.74, 1320.03 830.99, 1323.50 827.17 C 1326.98 823.35, 1328.69 821.40, 1331.26 816.89 C 1333.84 812.39, 1335.23 809.82, 1336.36 804.64 C 1337.50 799.45, 1338.15 796.20, 1336.93 790.96 C 1335.72 785.72, 1334.34 782.22, 1330.28 778.45 C 1326.22 774.67, 1322.89 773.01, 1316.64 772.08 C 1310.40 771.16, 1306.90 771.58, 1299.05 773.84 C 1291.21 776.09, 1286.93 777.82, 1277.41 783.36 C 1267.89 788.91, 1262.32 792.54, 1251.45 801.56 C 1240.58 810.59, 1234.11 816.65, 1223.07 828.49 C 1212.03 840.32, 1205.85 847.78, 1196.24 860.73 C 1186.62 873.68, 1181.78 881.15, 1174.99 893.24 C 1168.20 905.33, 1165.35 911.46, 1162.29 921.17 C 1159.23 930.88, 1158.19 935.12, 1159.70 941.80 C 1161.21 948.49, 1164.08 952.13, 1169.83 954.59 C 1175.58 957.04, 1180.20 956.37, 1188.46 954.07 C 1196.72 951.76, 1201.31 949.15, 1211.13 943.05 C 1220.95 936.95, 1226.58 932.69, 1237.55 923.57 C 1248.53 914.44, 1254.76 908.43, 1266.01 897.41 C 1277.25 886.40, 1283.47 879.54, 1293.78 868.49 C 1304.08 857.43, 1309.98 850.58, 1317.51 842.12 C 1325.04 833.66, 1329.62 830.39, 1331.43 826.20 C 1333.23 822.02, 1329.01 819.39, 1326.53 821.20 C 1324.06 823.00, 1323.03 827.43, 1319.04 835.23 C 1315.05 843.03, 1311.03 849.74, 1306.58 860.21 C 1302.13 870.68, 1299.50 877.59, 1296.81 887.60 C 1294.12 897.60, 1292.60 902.50, 1293.12 910.23 C 1293.65 917.96, 1294.63 922.41, 1299.43 926.25 C 1304.24 930.09, 1308.94 930.57, 1317.13 929.44 C 1325.32 928.31, 1330.03 925.94, 1340.40 920.61 C 1350.77 915.29, 1356.85 911.16, 1369.00 902.81 C 1381.15 894.45, 1388.30 888.81, 1401.14 878.84 C 1413.98 868.87, 1421.20 862.59, 1433.20 852.96 C 1445.21 843.34, 1452.03 837.49, 1461.16 830.71 C 1470.29 823.94, 1475.42 821.76, 1478.84 819.09 C 1482.25 816.42, 1479.46 815.10, 1478.25 817.36 C 1477.05 819.63, 1476.31 823.15, 1472.80 830.42 C 1469.29 837.69, 1465.76 843.97, 1460.69 853.70 C 1455.61 863.44, 1452.10 869.85, 1447.41 879.09 C 1442.72 888.32, 1439.80 892.65, 1437.25 899.87 C 1434.69 907.09, 1432.52 911.12, 1434.63 915.17 C 1436.75 919.23, 1441.63 921.10, 1447.83 920.15 C 1454.03 919.20, 1457.10 915.97, 1465.64 910.44 C 1474.18 904.91, 1479.56 900.54, 1490.52 892.49 C 1501.47 884.44, 1508.25 878.92, 1520.41 870.20 C 1532.57 861.48, 1539.83 856.19, 1551.34 848.90 C 1562.84 841.62, 1569.49 837.76, 1577.93 833.78 C 1586.36 829.79, 1590.25 829.56, 1593.52 828.99 C 1596.79 828.41, 1594.94 828.01, 1594.29 830.89 C 1593.65 833.78, 1592.90 836.90, 1590.32 843.41 C 1587.73 849.91, 1584.82 855.14, 1581.39 863.42 C 1577.95 871.69, 1575.52 876.88, 1573.12 884.78 C 1570.73 892.67, 1568.78 896.44, 1569.39 902.89 C 1570.00 909.34, 1571.41 913.93, 1576.19 917.01 C 1580.97 920.10, 1585.33 919.89, 1593.29 918.33 C 1601.25 916.78, 1605.73 914.44, 1615.99 909.24 C 1626.24 904.04, 1632.36 900.17, 1644.57 892.33 C 1656.77 884.49, 1663.97 879.14, 1677.01 870.04 C 1690.05 860.95, 1697.39 855.55, 1709.77 846.86 C 1722.14 838.18, 1728.71 833.25, 1738.87 826.62 C 1749.03 819.99, 1754.89 816.88, 1760.56 813.71 C 1766.23 810.55, 1766.61 810.42, 1767.22 810.79 C 1767.83 811.15, 1766.36 810.95, 1763.61 815.54 C 1760.85 820.14, 1758.41 825.38, 1753.45 833.77 C 1748.49 842.16, 1744.51 848.30, 1738.80 857.50 C 1733.08 866.69, 1729.38 871.93, 1724.87 879.74 C 1720.37 887.55, 1717.19 890.56, 1716.28 896.56 C 1715.37 902.56, 1716.59 907.58, 1720.32 909.73 C 1724.05 911.88, 1727.92 910.27, 1734.95 907.30 C 1741.97 904.34, 1745.79 901.04, 1755.42 894.90 C 1765.06 888.77, 1771.25 884.31, 1783.12 876.64 C 1794.99 868.98, 1802.33 864.05, 1814.77 856.59 C 1827.22 849.14, 1834.29 844.86, 1845.35 839.37 C 1856.40 833.87, 1862.64 831.41, 1870.05 829.11 C 1877.46 826.81, 1880.00 827.54, 1882.40 827.87 C 1884.80 828.20, 1883.12 827.44, 1882.05 830.76 C 1880.98 834.08, 1879.90 837.77, 1877.05 844.45 C 1874.21 851.14, 1871.21 856.16, 1867.82 864.18 C 1864.44 872.20, 1861.82 876.86, 1860.14 884.55 C 1858.47 892.24, 1857.14 896.79, 1859.45 902.63 C 1861.75 908.47, 1864.95 911.63, 1871.65 913.75 C 1878.34 915.86, 1882.80 915.14, 1892.91 913.18 C 1903.02 911.22, 1909.05 908.98, 1922.18 903.94 C 1935.31 898.90, 1943.18 895.22, 1958.55 888.00 C 1973.91 880.78, 1982.90 876.08, 1999.00 867.84 C 2015.11 859.60, 2023.95 854.69, 2039.08 846.80 C 2054.21 838.90, 2062.11 834.73, 2074.66 828.38 C 2087.21 822.04, 2093.25 819.14, 2101.82 815.07 C 2110.40 811.01, 2114.50 811.13, 2117.52 808.07 C 2120.55 805.00, 2119.17 801.27, 2116.94 799.74 C 2114.72 798.21, 2111.84 798.38, 2106.39 800.44 C 2100.94 802.49, 2097.23 805.13, 2089.69 810.01 C 2082.15 814.89, 2077.39 818.26, 2068.69 824.82 C 2059.99 831.38, 2054.91 835.32, 2046.19 842.80 C 2037.47 850.29, 2032.63 854.59, 2025.10 862.24 C 2017.57 869.89, 2013.71 873.89, 2008.54 881.06 C 2003.36 888.22, 2000.86 891.55, 1999.23 898.06 C 1997.60 904.57, 1997.42 909.00, 2000.38 913.60 C 2003.34 918.20, 2007.51 920.12, 2014.01 921.06 C 2020.52 922.00, 2024.57 920.92, 2032.90 918.30 C 2041.23 915.68, 2046.05 913.32, 2055.65 907.97 C 2065.24 902.62, 2070.54 898.89, 2080.87 891.55 C 2091.19 884.21, 2097.11 879.66, 2107.26 871.27 C 2117.42 862.89, 2122.96 857.90, 2131.63 849.63 C 2140.30 841.36, 2145.15 836.26, 2150.62 829.91 C 2156.09 823.56, 2159.34 821.11, 2158.99 817.88 C 2158.64 814.66, 2153.19 811.91, 2148.87 813.78 C 2144.56 815.65, 2142.39 820.39, 2137.42 827.23 C 2132.45 834.06, 2128.53 839.42, 2124.04 847.97 C 2119.55 856.51, 2117.07 861.76, 2114.98 869.95 C 2112.89 878.14, 2111.68 882.55, 2113.58 888.91 C 2115.49 895.28, 2118.33 898.85, 2124.50 901.79 C 2130.67 904.72, 2135.20 904.74, 2144.44 903.61 C 2153.69 902.48, 2159.29 900.50, 2170.72 896.13 C 2182.16 891.77, 2188.97 888.43, 2201.63 881.77 C 2214.28 875.12, 2221.50 870.64, 2233.99 862.86 C 2246.49 855.08, 2253.32 850.18, 2264.11 842.87 C 2274.90 835.56, 2280.81 831.18, 2287.94 826.30 C 2295.07 821.41, 2298.70 820.70, 2299.76 818.45 C 2300.81 816.20, 2296.49 813.14, 2293.23 815.03 C 2289.96 816.93, 2288.20 821.33, 2283.45 827.94 C 2278.70 834.54, 2274.53 839.76, 2269.49 848.08 C 2264.46 856.41, 2261.29 861.52, 2258.27 869.56 C 2255.25 877.59, 2253.31 881.91, 2254.39 888.26 C 2255.48 894.62, 2258.02 898.57, 2263.71 901.34 C 2269.40 904.11, 2273.82 903.61, 2282.84 902.10 C 2291.86 900.60, 2297.27 898.55, 2308.82 893.81 C 2320.37 889.07, 2327.41 885.45, 2340.59 878.40 C 2353.77 871.35, 2361.49 866.63, 2374.71 858.55 C 2387.93 850.48, 2395.07 845.62, 2406.70 838.03 C 2418.32 830.44, 2424.73 825.72, 2432.84 820.61 C 2440.95 815.51, 2444.85 814.39, 2447.25 812.49 C 2449.66 810.60, 2446.96 808.06, 2444.84 811.14 C 2442.73 814.23, 2441.94 818.53, 2436.70 827.91 C 2431.46 837.28, 2427.21 844.09, 2418.64 858.00 C 2410.08 871.92, 2404.56 880.54, 2393.87 897.46 C 2383.19 914.39, 2376.96 924.01, 2365.22 942.62 C 2353.48 961.23, 2347.12 971.37, 2335.19 990.50 C 2323.25 1009.63, 2317.08 1019.84, 2305.55 1038.28 C 2294.01 1056.72, 2288.34 1066.27, 2277.52 1082.70 C 2266.71 1099.13, 2261.43 1107.17, 2251.47 1120.43 C 2241.51 1133.68, 2236.49 1139.74, 2227.74 1148.98 C 2218.99 1158.22, 2214.57 1162.02, 2207.71 1166.63 C 2200.85 1171.24, 2197.61 1171.58, 2193.45 1172.02 C 2189.29 1172.47, 2188.85 1171.69, 2186.89 1168.86 C 2184.93 1166.04, 2183.86 1164.14, 2183.64 1157.91 C 2183.41 1151.68, 2183.06 1147.03, 2185.76 1137.70 C 2188.46 1128.38, 2190.45 1122.43, 2197.13 1111.27 C 2203.80 1100.12, 2208.09 1093.86, 2219.13 1081.92 C 2230.17 1069.98, 2237.11 1063.66, 2252.31 1051.59 C 2267.51 1039.51, 2276.87 1033.24, 2295.11 1021.56 C 2313.36 1009.88, 2323.76 1003.98, 2343.53 993.17 C 2363.31 982.36, 2374.19 977.14, 2393.99 967.51 C 2413.78 957.88, 2424.03 953.18, 2442.50 945.02 C 2460.98 936.87, 2470.27 933.23, 2486.38 926.74 C 2502.50 920.25, 2510.02 917.50, 2523.09 912.57 C 2536.17 907.64, 2542.57 905.41, 2551.74 902.09 C 2560.90 898.76, 2563.91 898.08, 2568.91 895.95 C 2573.91 893.81, 2575.68 893.41, 2576.74 891.42 C 2577.79 889.43, 2576.32 886.48, 2574.18 886.00 C 2572.03 885.53, 2570.96 886.98, 2566.01 889.03 C 2561.06 891.08, 2558.37 892.42, 2549.43 896.24 C 2540.49 900.05, 2534.24 902.74, 2521.33 908.11 C 2508.41 913.47, 2500.92 916.32, 2484.87 923.05 C 2468.81 929.78, 2459.52 933.47, 2441.05 941.75 C 2422.57 950.03, 2412.33 954.77, 2392.50 964.45 C 2372.66 974.13, 2361.76 979.35, 2341.89 990.15 C 2322.02 1000.96, 2311.57 1006.83, 2293.15 1018.47 C 2274.72 1030.11, 2265.28 1036.33, 2249.77 1048.35 C 2234.26 1060.37, 2227.16 1066.63, 2215.59 1078.57 C 2204.03 1090.50, 2199.42 1096.68, 2191.95 1108.02 C 2184.48 1119.36, 2181.81 1125.23, 2178.23 1135.26 C 2174.65 1145.30, 2173.84 1150.24, 2174.06 1158.21 C 2174.27 1166.18, 2175.27 1170.70, 2179.32 1175.13 C 2183.37 1179.57, 2187.87 1181.03, 2194.31 1180.39 C 2200.74 1179.75, 2204.07 1177.53, 2211.50 1171.93 C 2218.93 1166.33, 2222.80 1162.18, 2231.46 1152.37 C 2240.12 1142.56, 2244.97 1136.42, 2254.80 1122.89 C 2264.62 1109.35, 2269.85 1101.26, 2280.58 1084.70 C 2291.31 1068.14, 2296.96 1058.57, 2308.46 1040.09 C 2319.96 1021.62, 2326.12 1011.42, 2338.09 992.31 C 2350.06 973.21, 2356.43 963.09, 2368.31 944.59 C 2380.19 926.08, 2386.46 916.50, 2397.48 899.79 C 2408.51 883.09, 2414.33 874.71, 2423.43 861.08 C 2432.54 847.45, 2437.13 841.15, 2443.02 831.63 C 2448.91 822.11, 2452.49 818.89, 2452.87 813.50 C 2453.24 808.11, 2449.67 804.41, 2444.90 804.68 C 2440.13 804.94, 2437.28 809.10, 2429.01 814.83 C 2420.74 820.56, 2414.98 825.52, 2403.56 833.35 C 2392.15 841.18, 2385.07 846.01, 2371.93 853.99 C 2358.80 861.96, 2351.02 866.56, 2337.89 873.21 C 2324.75 879.85, 2317.54 883.13, 2306.27 887.21 C 2295.00 891.30, 2289.27 892.55, 2281.54 893.62 C 2273.81 894.68, 2271.08 893.81, 2267.61 892.52 C 2264.15 891.23, 2264.25 891.04, 2264.21 887.18 C 2264.18 883.33, 2264.54 879.92, 2267.43 873.24 C 2270.33 866.56, 2273.67 861.59, 2278.68 853.81 C 2283.68 846.02, 2287.78 841.01, 2292.46 834.32 C 2297.14 827.64, 2301.34 825.10, 2302.08 820.38 C 2302.81 815.65, 2299.86 810.72, 2296.15 810.68 C 2292.43 810.65, 2290.60 814.74, 2283.50 820.19 C 2276.40 825.64, 2271.15 830.36, 2260.66 837.94 C 2250.17 845.52, 2243.39 850.41, 2231.03 858.10 C 2218.68 865.80, 2211.43 870.15, 2198.88 876.41 C 2186.34 882.68, 2179.38 885.69, 2168.31 889.44 C 2157.24 893.18, 2151.50 894.41, 2143.52 895.16 C 2135.55 895.90, 2132.53 894.89, 2128.42 893.16 C 2124.32 891.42, 2123.80 890.59, 2122.99 886.48 C 2122.19 882.37, 2122.27 879.28, 2124.40 872.63 C 2126.53 865.97, 2129.19 860.97, 2133.62 853.21 C 2138.05 845.45, 2141.95 840.25, 2146.56 833.83 C 2151.17 827.41, 2155.55 825.02, 2156.67 821.09 C 2157.80 817.16, 2154.65 813.48, 2152.17 814.17 C 2149.69 814.87, 2149.31 818.42, 2144.26 824.56 C 2139.21 830.70, 2135.12 836.49, 2126.93 844.87 C 2118.74 853.26, 2113.28 858.24, 2103.30 866.48 C 2093.33 874.71, 2087.34 879.16, 2077.07 886.05 C 2066.80 892.95, 2061.33 896.37, 2051.97 900.94 C 2042.60 905.50, 2037.58 907.09, 2030.24 908.88 C 2022.91 910.68, 2019.40 910.20, 2015.30 909.91 C 2011.19 909.63, 2011.03 909.35, 2009.71 907.46 C 2008.40 905.58, 2007.62 904.82, 2008.74 900.47 C 2009.86 896.13, 2011.00 892.36, 2015.32 885.73 C 2019.65 879.10, 2023.25 874.81, 2030.36 867.33 C 2037.47 859.85, 2042.25 855.50, 2050.87 848.34 C 2059.49 841.19, 2064.60 837.38, 2073.44 831.56 C 2082.29 825.74, 2087.42 823.24, 2095.08 819.24 C 2102.75 815.24, 2107.10 814.42, 2111.79 811.55 C 2116.48 808.68, 2118.26 807.16, 2118.51 804.87 C 2118.77 802.59, 2117.03 799.27, 2113.07 800.12 C 2109.10 800.98, 2106.86 804.40, 2098.70 809.14 C 2090.55 813.89, 2084.63 817.13, 2072.28 823.86 C 2059.94 830.58, 2052.04 834.79, 2036.97 842.78 C 2021.90 850.76, 2013.05 855.67, 1996.94 863.79 C 1980.84 871.91, 1971.81 876.53, 1956.44 883.39 C 1941.06 890.25, 1933.03 893.67, 1920.06 898.08 C 1907.09 902.50, 1900.74 904.12, 1891.58 905.47 C 1882.43 906.81, 1878.79 906.01, 1874.29 904.81 C 1869.80 903.60, 1869.89 902.99, 1869.11 899.45 C 1868.32 895.90, 1868.60 893.27, 1870.36 887.09 C 1872.13 880.90, 1874.54 876.23, 1877.93 868.53 C 1881.32 860.83, 1884.43 856.02, 1887.30 848.60 C 1890.17 841.19, 1892.75 837.29, 1892.28 831.43 C 1891.82 825.58, 1889.87 821.20, 1884.96 819.34 C 1880.05 817.47, 1876.24 819.20, 1867.76 822.11 C 1859.27 825.03, 1853.74 828.01, 1842.55 833.91 C 1831.36 839.81, 1824.37 844.16, 1811.80 851.61 C 1799.23 859.05, 1791.80 863.88, 1779.70 871.15 C 1767.59 878.42, 1761.02 882.53, 1751.28 887.97 C 1741.54 893.40, 1736.42 895.78, 1730.97 898.34 C 1725.52 900.90, 1725.02 900.56, 1724.02 900.76 C 1723.02 900.95, 1724.23 902.64, 1725.97 899.32 C 1727.72 896.00, 1728.68 891.58, 1732.74 884.16 C 1736.80 876.73, 1740.51 871.29, 1746.28 862.19 C 1752.04 853.09, 1756.35 847.23, 1761.57 838.64 C 1766.79 830.05, 1770.35 825.95, 1772.36 819.23 C 1774.38 812.52, 1774.66 807.50, 1771.63 805.06 C 1768.60 802.63, 1764.44 803.73, 1757.21 807.04 C 1749.98 810.36, 1745.60 814.54, 1735.50 821.65 C 1725.41 828.76, 1719.04 833.78, 1706.73 842.59 C 1694.43 851.39, 1687.07 856.76, 1673.99 865.67 C 1660.92 874.58, 1653.61 879.81, 1641.35 887.15 C 1629.10 894.49, 1622.69 897.98, 1612.73 902.38 C 1602.77 906.78, 1597.74 907.99, 1591.54 909.14 C 1585.34 910.29, 1584.02 909.44, 1581.72 908.12 C 1579.41 906.80, 1579.73 906.59, 1580.00 902.54 C 1580.27 898.50, 1580.80 894.88, 1583.06 887.89 C 1585.32 880.89, 1587.86 875.74, 1591.30 867.57 C 1594.75 859.40, 1597.75 854.53, 1600.27 847.03 C 1602.78 839.52, 1605.25 835.30, 1603.89 830.04 C 1602.52 824.78, 1599.24 821.21, 1593.44 820.72 C 1587.64 820.23, 1583.94 822.95, 1574.88 827.60 C 1565.82 832.25, 1559.72 836.39, 1548.15 843.96 C 1536.58 851.52, 1529.36 856.84, 1517.04 865.42 C 1504.71 874.00, 1497.72 879.30, 1486.54 886.85 C 1475.37 894.39, 1469.45 898.39, 1461.18 903.14 C 1452.90 907.89, 1448.55 908.85, 1445.16 910.59 C 1441.76 912.33, 1444.02 913.33, 1444.20 911.83 C 1444.37 910.32, 1443.85 908.84, 1446.03 903.07 C 1448.20 897.30, 1450.52 891.98, 1455.07 882.96 C 1459.62 873.95, 1463.56 867.72, 1468.78 857.99 C 1474.00 848.26, 1477.55 842.40, 1481.17 834.30 C 1484.78 826.20, 1487.94 821.91, 1486.84 817.50 C 1485.74 813.09, 1481.57 810.59, 1475.67 812.24 C 1469.76 813.89, 1466.48 818.41, 1457.32 825.73 C 1448.16 833.06, 1441.74 839.08, 1429.87 848.87 C 1418.00 858.66, 1410.79 864.90, 1397.95 874.70 C 1385.12 884.49, 1377.84 889.98, 1365.69 897.85 C 1353.54 905.73, 1347.16 909.45, 1337.20 914.08 C 1327.24 918.71, 1322.33 919.97, 1315.88 921.01 C 1309.44 922.05, 1307.82 921.49, 1304.98 919.26 C 1302.15 917.04, 1301.71 915.77, 1301.70 909.89 C 1301.69 904.01, 1302.23 899.06, 1304.93 889.88 C 1307.64 880.70, 1310.71 874.06, 1315.22 863.98 C 1319.73 853.90, 1323.58 847.41, 1327.50 839.48 C 1331.41 831.55, 1335.16 828.04, 1334.78 824.33 C 1334.40 820.61, 1330.06 818.20, 1325.59 820.90 C 1321.13 823.60, 1319.64 829.04, 1312.48 837.83 C 1305.31 846.61, 1299.81 853.67, 1289.77 864.82 C 1279.73 875.97, 1273.49 882.77, 1262.28 893.59 C 1251.08 904.40, 1244.75 910.26, 1233.76 918.88 C 1222.78 927.50, 1216.90 931.35, 1207.37 936.69 C 1197.84 942.04, 1192.99 943.72, 1186.11 945.62 C 1179.23 947.52, 1176.71 947.28, 1172.97 946.19 C 1169.22 945.10, 1168.28 944.80, 1167.38 940.16 C 1166.48 935.53, 1165.98 931.86, 1168.45 923.00 C 1170.92 914.14, 1173.36 907.70, 1179.73 895.85 C 1186.10 883.99, 1190.86 876.49, 1200.29 863.74 C 1209.73 850.99, 1215.90 843.59, 1226.90 832.11 C 1237.90 820.62, 1244.44 814.71, 1255.27 806.32 C 1266.10 797.93, 1271.84 794.65, 1281.05 790.15 C 1290.26 785.65, 1294.74 784.82, 1301.31 783.82 C 1307.88 782.82, 1310.41 784.02, 1313.88 785.15 C 1317.34 786.28, 1317.38 787.66, 1318.62 789.48 C 1319.86 791.30, 1319.81 791.89, 1320.07 794.25 C 1320.33 796.60, 1320.50 798.20, 1319.94 801.27 C 1319.38 804.33, 1318.82 806.21, 1317.27 809.57 C 1315.73 812.92, 1314.58 814.64, 1312.22 818.04 C 1309.85 821.44, 1308.58 823.22, 1305.44 826.57 C 1302.31 829.91, 1300.78 831.42, 1296.54 834.77 C 1292.29 838.12, 1290.18 839.67, 1284.20 843.31 C 1278.23 846.95, 1274.94 848.72, 1266.64 852.98 C 1258.34 857.24, 1253.69 859.43, 1242.69 864.61 C 1231.69 869.79, 1225.45 872.65, 1211.64 878.88 C 1197.83 885.12, 1189.89 888.69, 1173.64 895.80 C 1157.38 902.92, 1148.12 907.01, 1130.35 914.46 C 1112.58 921.90, 1102.54 926.27, 1084.79 933.03 C 1067.04 939.80, 1057.63 943.46, 1041.63 948.28 C 1025.62 953.10, 1017.62 955.19, 1004.75 957.13 C 991.88 959.06, 985.98 959.30, 977.28 957.95 C 968.58 956.60, 965.80 955.51, 961.25 950.39 C 956.69 945.26, 955.22 942.13, 954.51 932.34 C 953.80 922.55, 954.63 915.88, 957.68 901.43 C 960.74 886.99, 963.66 878.01, 969.79 860.13 C 975.92 842.25, 980.28 831.84, 988.35 812.04 C 996.41 792.24, 1001.55 781.14, 1010.10 761.14 C 1018.65 741.13, 1023.41 730.47, 1031.10 712.01 C 1038.79 693.56, 1042.55 684.37, 1048.53 668.85 C 1054.52 653.32, 1057.15 645.64, 1061.03 634.39 C 1064.91 623.14, 1065.82 619.23, 1067.95 612.59 C 1070.07 605.95, 1072.84 603.97, 1071.65 601.17 C 1070.46 598.37, 1064.43 596.76, 1062.00 598.59" style="stroke: black; fill: black; stroke-width: 14; stroke-linejoin: round; stroke-linecap: round; paint-order: stroke fill;"/></svg>